<?xml version="1.0" encoding="utf-8"?>
<!-- Generator: Adobe Illustrator 16.0.0, SVG Export Plug-In . SVG Version: 6.00 Build 0)  -->
<!DOCTYPE svg PUBLIC "-//W3C//DTD SVG 1.1//EN" "http://www.w3.org/Graphics/SVG/1.1/DTD/svg11.dtd">
<svg version="1.1" id="svg" xmlns="http://www.w3.org/2000/svg" xmlns:xlink="http://www.w3.org/1999/xlink" x="0px" y="0px"
	 width="87px" height="87px" viewBox="-9.167 10.899 87 87" style="enable-background:new -9.167 10.899 87 87;"
	 xml:space="preserve">
<g style="opacity:0.07;">
	<g>
		<g>
			<path style="fill:#FFFFFF;" d="M4.351,53.691c-0.616,0.912-0.616,2.402,0,3.314l26.567,39.289
				c0.616,0.912,0.819,0.809,0.452-0.228L12.882,43.949c-0.368-1.037-1.172-1.139-1.789-0.228L4.351,53.691z"/>
		</g>
		<g>
			<g>
				<path style="fill:#FFFFFF;" d="M34.812,12.503c-0.616-0.911-1.624-0.911-2.24,0L14.988,38.51
					c-0.616,0.911-0.819,2.505-0.452,3.542L33.024,94.17c0.368,1.036,0.969,1.036,1.337,0l18.489-52.119
					c0.368-1.037,0.165-2.63-0.452-3.542L34.812,12.503z"/>
			</g>
		</g>
		<g>
			<path style="fill:#FFFFFF;" d="M56.293,43.721c-0.616-0.911-1.421-0.809-1.789,0.228L36.015,96.067
				c-0.368,1.036-0.165,1.14,0.452,0.228l26.567-39.289c0.616-0.912,0.616-2.402,0-3.314L56.293,43.721z"/>
		</g>
	</g>
</g>
</svg>
