<?xml version="1.0" encoding="utf-8"?>
<!-- Generator: Adobe Illustrator 16.0.0, SVG Export Plug-In . SVG Version: 6.00 Build 0)  -->
<!DOCTYPE svg PUBLIC "-//W3C//DTD SVG 1.1//EN" "http://www.w3.org/Graphics/SVG/1.1/DTD/svg11.dtd">
<svg version="1.1" id="svg" xmlns="http://www.w3.org/2000/svg" xmlns:xlink="http://www.w3.org/1999/xlink" x="0px" y="0px"
	 width="327.261px" height="128px" viewBox="2294.708 -201.601 327.261 128"
	 style="enable-background:new 2294.708 -201.601 327.261 128;" xml:space="preserve">
<g>
	<g>
		<g>
			<path style="fill:#798CEF;" d="M1187.983,236.259c-0.819,1.308-0.819,3.448,0,4.756l35.92,57.362
				c0.819,1.308,1.095,1.178,0.613-0.288l-25.018-76.152c-0.481-1.466-1.546-1.596-2.365-0.288L1187.983,236.259z"/>
		</g>
		<g>
			<g>
				<path style="fill:#BABABA;" d="M1229.116,176.133c-0.819-1.308-2.159-1.308-2.979,0l-23.791,37.993
					c-0.819,1.308-1.095,3.578-0.613,5.044l25.018,76.154c0.481,1.466,1.271,1.466,1.752,0l25.018-76.154
					c0.481-1.466,0.206-3.736-0.613-5.044L1229.116,176.133z"/>
			</g>
		</g>
		<g>
			<path style="fill:#798CEF;" d="M1258.12,221.649c-0.819-1.308-1.884-1.178-2.365,0.288l-25.018,76.152
				c-0.481,1.466-0.206,1.596,0.613,0.287l35.918-57.36c0.819-1.309,0.819-3.449,0-4.757L1258.12,221.649z"/>
		</g>
	</g>
</g>
<g>
	<g>
		<g>
			<g>
				<path style="fill:#798CEF;" d="M1313.115-138.598c-0.818,1.308-0.819,3.449,0,4.757l35.921,57.362
					c0.819,1.308,1.095,1.179,0.613-0.288l-25.018-76.153c-0.481-1.466-1.546-1.596-2.365-0.288L1313.115-138.598z"/>
			</g>
			<g>
				<g>
					<path style="fill:#BABABA;" d="M1354.249-198.723c-0.819-1.308-2.159-1.308-2.979,0l-23.792,37.994
						c-0.819,1.308-1.095,3.578-0.613,5.044l25.019,76.152c0.481,1.466,1.271,1.466,1.752,0l25.019-76.152
						c0.481-1.466,0.206-3.736-0.613-5.044L1354.249-198.723z"/>
				</g>
			</g>
			<g>
				<path style="fill:#798CEF;" d="M1383.254-153.208c-0.819-1.308-1.884-1.179-2.365,0.288l-25.02,76.153
					c-0.481,1.466-0.206,1.596,0.613,0.288l35.919-57.362c0.819-1.308,0.819-3.449,0-4.757L1383.254-153.208z"/>
			</g>
		</g>
	</g>
	<g>
		<path style="fill:#798CEF;" d="M1427.589-102.708l-26.955-69.788h11.518l12.864,34.377c3.553,9.424,6.616,17.913,8.82,26.094
			h0.245c2.328-8.076,5.759-16.878,9.436-25.99l13.967-34.48h11.394l-29.527,69.788H1427.589z"/>
		<path style="fill:#798CEF;" d="M1488.485-172.496v69.788h-10.66v-69.788H1488.485z"/>
		<path style="fill:#798CEF;" d="M1569.961-105.814c-4.779,1.451-14.211,3.832-25.362,3.832c-12.495,0-22.787-2.691-30.874-9.216
			c-7.105-5.798-11.515-15.117-11.515-25.989c0.121-20.812,17.03-36.033,44.716-36.033c9.56,0,17.032,1.761,20.586,3.21
			l-2.572,7.353c-4.412-1.658-9.926-3.003-18.256-3.003c-20.095,0-33.204,10.562-33.204,28.059
			c0,17.707,12.619,28.164,31.854,28.164c6.983,0,11.762-0.827,14.214-1.864v-20.811h-16.787v-7.248h27.2V-105.814z"/>
		<path style="fill:#BABABA;" d="M1656.832-138.327c0,24.022-17.275,36.759-38.349,36.759c-21.808,0-37.121-14.289-37.121-35.411
			c0-22.159,16.294-36.655,38.348-36.655C1642.252-173.634,1656.832-159.036,1656.832-138.327z M1592.756-137.187
			c0,14.91,9.556,28.268,26.34,28.268c16.908,0,26.464-13.15,26.464-28.992c0-13.875-8.574-28.37-26.341-28.37
			C1601.575-166.282,1592.756-152.51,1592.756-137.187z"/>
		<path style="fill:#BABABA;" d="M1670.681-171.563c5.392-0.933,13.109-1.449,20.463-1.449c11.393,0,18.745,1.761,23.891,5.693
			c4.164,3.106,6.493,7.869,6.493,13.254c0,9.216-6.862,15.324-15.562,17.81v0.312c6.373,1.864,10.17,6.834,12.132,14.08
			c2.693,9.734,4.655,16.465,6.369,19.156h-11.026c-1.349-1.966-3.185-7.972-5.513-16.671c-2.451-9.629-6.862-13.253-16.54-13.563
			h-10.046v30.234h-10.661V-171.563z M1681.343-139.776h10.903c11.394,0,18.621-5.28,18.621-13.253
			c0-9.009-7.718-12.942-18.988-13.047c-5.146,0-8.822,0.415-10.536,0.829V-139.776z"/>
	</g>
</g>
<g>
	<g>
		<g>
			<g>
				<path style="fill:#798CEF;" d="M1804.656-138.597c-0.819,1.308-0.819,3.449,0,4.757l35.921,57.36
					c0.819,1.308,1.095,1.179,0.613-0.288l-25.018-76.152c-0.481-1.466-1.546-1.596-2.365-0.288L1804.656-138.597z"/>
			</g>
			<g>
				<g>
					<path style="fill:#BABABA;" d="M1845.789-198.723c-0.819-1.308-2.159-1.308-2.979,0l-23.791,37.993
						c-0.819,1.308-1.095,3.578-0.613,5.044l25.018,76.154c0.481,1.466,1.27,1.466,1.752,0l25.02-76.154
						c0.482-1.466,0.206-3.736-0.613-5.044L1845.789-198.723z"/>
				</g>
			</g>
			<g>
				<path style="fill:#798CEF;" d="M1874.795-153.207c-0.819-1.308-1.884-1.179-2.365,0.288l-25.02,76.152
					c-0.481,1.466-0.206,1.596,0.613,0.288l35.919-57.36c0.819-1.308,0.819-3.449,0-4.757L1874.795-153.207z"/>
			</g>
		</g>
	</g>
	<g>
		<path style="fill:#798CEF;" d="M1904.91-130.942l-19.129-49.528h8.173l9.13,24.396c2.521,6.688,4.694,12.713,6.261,18.518h0.174
			c1.652-5.731,4.086-11.978,6.694-18.444l9.913-24.47h8.086l-20.955,49.528H1904.91z"/>
		<path style="fill:#798CEF;" d="M1948.126-180.47v49.528h-7.563v-49.528H1948.126z"/>
		<path style="fill:#798CEF;" d="M2005.949-133.147c-3.392,1.029-10.086,2.72-17.999,2.72c-8.868,0-16.172-1.911-21.911-6.541
			c-5.043-4.115-8.173-10.728-8.173-18.443c0.087-14.77,12.087-25.572,31.736-25.572c6.782,0,12.086,1.249,14.608,2.277
			l-1.826,5.218c-3.131-1.176-7.043-2.131-12.956-2.131c-14.26,0-23.563,7.495-23.563,19.913c0,12.566,8.956,19.988,22.607,19.988
			c4.955,0,8.347-0.587,10.086-1.323v-14.77h-11.912v-5.144h19.303V-133.147z"/>
		<path style="fill:#BABABA;" d="M2067.599-156.221c0,17.048-12.259,26.086-27.215,26.086c-15.477,0-26.346-10.141-26.346-25.131
			c0-15.725,11.564-26.012,27.215-26.012C2057.253-181.278,2067.599-170.917,2067.599-156.221z M2022.126-155.412
			c0,10.581,6.781,20.061,18.693,20.061c11.999,0,18.781-9.333,18.781-20.575c0-9.847-6.086-20.134-18.693-20.134
			C2028.385-176.061,2022.126-166.287,2022.126-155.412z"/>
		<path style="fill:#BABABA;" d="M2077.428-179.809c3.826-0.662,9.304-1.028,14.521-1.028c8.086,0,13.303,1.25,16.955,4.041
			c2.956,2.204,4.607,5.585,4.607,9.406c0,6.54-4.869,10.876-11.043,12.64v0.22c4.521,1.323,7.218,4.85,8.609,9.993
			c1.912,6.908,3.304,11.684,4.521,13.595h-7.826c-0.956-1.396-2.26-5.658-3.912-11.831c-1.739-6.834-4.869-9.406-11.737-9.626
			h-7.131v21.457h-7.564V-179.809z M2084.993-157.25h7.739c8.085,0,13.215-3.748,13.215-9.406c0-6.393-5.478-9.185-13.476-9.259
			c-3.652,0-6.262,0.294-7.479,0.588V-157.25z"/>
	</g>
	<g>
		<g>
			<path style="fill:#BABABA;" d="M1920.555-96.74c-0.143-3.495-0.284-7.729-0.284-11.96h-0.144
				c-0.998,3.711-2.326,7.856-3.562,11.271l-3.893,11.356h-5.65l-3.418-11.271c-1.044-3.41-2.136-7.556-2.896-11.355h-0.096
				c-0.19,3.93-0.332,8.418-0.57,12.047l-0.569,11.054h-6.694l2.041-29.103h9.64l3.133,9.713c0.997,3.371,1.993,6.998,2.707,10.407
				h0.142c0.902-3.366,1.994-7.209,3.039-10.45l3.419-9.67h9.447l1.758,29.103h-7.074L1920.555-96.74z"/>
			<path style="fill:#BABABA;" d="M1952.705-97.908h-11.773v6.911h13.151v5.398h-20.416v-29.103h19.752v5.396h-12.487v6.045h11.773
				V-97.908z"/>
			<path style="fill:#BABABA;" d="M1986.091-96.74c-0.144-3.495-0.287-7.729-0.287-11.96h-0.143
				c-0.995,3.711-2.327,7.856-3.561,11.271l-3.893,11.356h-5.65l-3.419-11.271c-1.045-3.41-2.136-7.556-2.896-11.355h-0.096
				c-0.189,3.93-0.332,8.418-0.569,12.047l-0.57,11.054h-6.693l2.041-29.103h9.638l3.135,9.713
				c0.997,3.371,1.995,6.998,2.706,10.407h0.141c0.903-3.366,1.997-7.209,3.041-10.45l3.417-9.67h9.449l1.757,29.103h-7.073
				L1986.091-96.74z"/>
			<path style="fill:#BABABA;" d="M1999.201-114.314c1.899-0.346,5.744-0.605,9.354-0.605c4.414,0,7.121,0.391,9.447,1.641
				c2.232,1.081,3.846,3.065,3.846,5.7c0,2.59-1.661,5.009-5.27,6.218v0.089c3.656,0.904,6.361,3.41,6.361,7.165
				c0,2.636-1.329,4.707-3.322,6.177c-2.327,1.684-6.221,2.631-12.584,2.631c-3.56,0-6.219-0.215-7.832-0.43V-114.314z
				 M2006.369-103.174h2.375c3.797,0,5.84-1.425,5.84-3.584c0-2.203-1.853-3.369-5.128-3.369c-1.567,0-2.469,0.088-3.087,0.174
				V-103.174z M2006.369-90.263c0.714,0.085,1.567,0.085,2.801,0.085c3.277,0,6.173-1.12,6.173-4.188
				c0-2.934-2.896-4.102-6.505-4.102h-2.469V-90.263z"/>
			<path style="fill:#BABABA;" d="M2046.921-97.908h-11.774v6.911h13.152v5.398h-20.416v-29.103h19.75v5.396h-12.486v6.045h11.774
				V-97.908z"/>
			<path style="fill:#BABABA;" d="M2053.241-114.314c2.327-0.346,5.793-0.605,9.639-0.605c4.749,0,8.072,0.648,10.352,2.29
				c1.898,1.381,2.942,3.412,2.942,6.087c0,3.716-2.896,6.261-5.649,7.17v0.13c2.23,0.818,3.467,2.763,4.272,5.439
				c0.997,3.282,1.995,7.081,2.611,8.204h-7.406c-0.521-0.819-1.281-3.195-2.231-6.78c-0.855-3.626-2.231-4.619-5.176-4.665h-2.184
				v11.445h-7.17V-114.314z M2060.411-101.792h2.849c3.609,0,5.745-1.641,5.745-4.188c0-2.678-1.994-4.019-5.317-4.059
				c-1.757,0-2.754,0.131-3.276,0.214V-101.792z"/>
			<path style="fill:#BABABA;" d="M2114.495-86.418c-1.328,0.602-4.321,1.251-8.216,1.251c-11.061,0-16.759-6.26-16.759-14.55
				c0-9.935,7.786-15.461,17.471-15.461c3.753,0,6.602,0.69,7.885,1.298l-1.473,5.222c-1.474-0.56-3.515-1.077-6.078-1.077
				c-5.744,0-10.207,3.151-10.207,9.627c0,5.83,3.797,9.5,10.255,9.5c2.185,0,4.604-0.431,6.03-0.95L2114.495-86.418z"/>
			<path style="fill:#BABABA;" d="M2119.248-114.702h7.266v23.576h12.724v5.527h-19.989V-114.702z"/>
			<path style="fill:#BABABA;" d="M2150.778-114.702v29.103h-7.264v-29.103H2150.778z"/>
			<path style="fill:#BABABA;" d="M2176.088-97.908h-11.776v6.911h13.15v5.398h-20.415v-29.103h19.751v5.396h-12.486v6.045h11.776
				V-97.908z"/>
			<path style="fill:#BABABA;" d="M2182.403-85.599v-29.103h8.451l6.648,10.667c1.898,3.064,3.798,6.691,5.224,9.974h0.144
				c-0.479-3.846-0.619-7.773-0.619-12.135v-8.505h6.646v29.103h-7.596l-6.836-11.227c-1.899-3.108-3.991-6.865-5.558-10.276
				l-0.141,0.04c0.19,3.847,0.284,7.945,0.284,12.697v8.766H2182.403z"/>
			<path style="fill:#BABABA;" d="M2221.343-109.176h-8.593v-5.526h24.596v5.526h-8.735v23.577h-7.268V-109.176z"/>
		</g>
	</g>
</g>
<g>
	<g>
		<g>
			<g>
				<path style="fill:#798CEF;" d="M2296.197-138.597c-0.818,1.308-0.819,3.449,0,4.757l35.92,57.361
					c0.819,1.308,1.095,1.179,0.613-0.288l-25.018-76.153c-0.481-1.466-1.547-1.596-2.365-0.288L2296.197-138.597z"/>
			</g>
			<g>
				<g>
					<path style="fill:#BABABA;" d="M2337.33-198.723c-0.818-1.308-2.159-1.308-2.979,0l-23.791,37.993
						c-0.819,1.308-1.096,3.578-0.613,5.044l25.018,76.155c0.482,1.466,1.271,1.466,1.752,0l25.02-76.155
						c0.481-1.466,0.205-3.736-0.613-5.044L2337.33-198.723z"/>
				</g>
			</g>
			<g>
				<path style="fill:#798CEF;" d="M2366.336-153.208c-0.819-1.308-1.884-1.179-2.365,0.288l-25.021,76.153
					c-0.481,1.466-0.206,1.596,0.613,0.288l35.92-57.361c0.819-1.308,0.819-3.449,0-4.757L2366.336-153.208z"/>
			</g>
		</g>
	</g>
	<g>
		<path style="fill:#798CEF;" d="M2396.45-130.942l-19.128-49.528h8.173l9.13,24.396c2.521,6.688,4.694,12.713,6.261,18.518h0.174
			c1.651-5.732,4.086-11.977,6.694-18.445l9.913-24.469h8.086l-20.955,49.528H2396.45z"/>
		<path style="fill:#798CEF;" d="M2439.667-180.47v49.528h-7.563v-49.528H2439.667z"/>
		<path style="fill:#798CEF;" d="M2497.49-133.148c-3.392,1.029-10.086,2.72-17.999,2.72c-8.868,0-16.172-1.911-21.911-6.541
			c-5.043-4.114-8.173-10.727-8.173-18.442c0.087-14.771,12.086-25.573,31.736-25.573c6.783,0,12.087,1.25,14.608,2.278
			l-1.826,5.217c-3.131-1.176-7.043-2.131-12.955-2.131c-14.261,0-23.564,7.496-23.564,19.913c0,12.566,8.955,19.988,22.606,19.988
			c4.956,0,8.348-0.587,10.088-1.323v-14.769h-11.914v-5.144h19.304V-133.148z"/>
		<path style="fill:#BABABA;" d="M2559.14-156.221c0,17.048-12.26,26.086-27.215,26.086c-15.478,0-26.345-10.14-26.345-25.13
			c0-15.726,11.563-26.013,27.215-26.013C2548.793-181.278,2559.14-170.918,2559.14-156.221z M2513.667-155.412
			c0,10.58,6.781,20.06,18.693,20.06c11.999,0,18.781-9.333,18.781-20.575c0-9.846-6.086-20.133-18.693-20.133
			C2519.927-176.061,2513.667-166.288,2513.667-155.412z"/>
		<path style="fill:#BABABA;" d="M2568.969-179.808c3.825-0.662,9.303-1.029,14.521-1.029c8.085,0,13.303,1.25,16.955,4.041
			c2.955,2.205,4.607,5.585,4.607,9.406c0,6.541-4.869,10.876-11.043,12.64v0.22c4.521,1.323,7.217,4.851,8.609,9.993
			c1.912,6.908,3.304,11.685,4.52,13.595h-7.825c-0.956-1.396-2.261-5.658-3.912-11.832c-1.739-6.833-4.87-9.406-11.737-9.626h-7.13
			v21.458h-7.565V-179.808z M2576.535-157.249h7.737c8.086,0,13.216-3.748,13.216-9.406c0-6.394-5.478-9.186-13.476-9.259
			c-3.652,0-6.262,0.293-7.478,0.587V-157.249z"/>
	</g>
	<g>
		<path style="fill:#BABABA;" d="M2388.142-94.806c1.588,0.677,4.027,1.355,6.545,1.355c2.711,0,4.145-0.936,4.145-2.355
			c0-1.354-1.24-2.129-4.377-3.064c-4.338-1.258-7.164-3.258-7.164-6.419c0-3.709,3.717-6.548,9.875-6.548
			c2.943,0,5.111,0.516,6.66,1.097l-1.316,3.968c-1.045-0.419-2.904-1.032-5.459-1.032c-2.557,0-3.797,0.968-3.797,2.097
			c0,1.387,1.473,2,4.842,3.064c4.607,1.419,6.777,3.419,6.777,6.484c0,3.645-3.369,6.742-10.533,6.742
			c-2.982,0-5.926-0.646-7.398-1.323L2388.142-94.806z"/>
		<path style="fill:#BABABA;" d="M2413.892-107.354h-7.01v-4.129h20.061v4.129h-7.125v17.612h-5.926V-107.354z"/>
		<path style="fill:#BABABA;" d="M2433.369-95.322l-1.857,5.581h-6.119l7.977-21.741h7.746l8.094,21.741h-6.352l-2.014-5.581
			H2433.369z M2439.992-98.999l-1.627-4.613c-0.465-1.29-0.93-2.903-1.316-4.193h-0.078c-0.387,1.29-0.773,2.936-1.199,4.193
			l-1.549,4.613H2439.992z"/>
		<path style="fill:#BABABA;" d="M2452.689-111.192c1.551-0.258,4.688-0.451,7.631-0.451c3.602,0,5.809,0.29,7.705,1.226
			c1.82,0.806,3.137,2.29,3.137,4.258c0,1.936-1.355,3.742-4.297,4.645v0.064c2.98,0.678,5.188,2.548,5.188,5.355
			c0,1.967-1.084,3.516-2.709,4.613c-1.898,1.258-5.074,1.967-10.264,1.967c-2.904,0-5.072-0.161-6.391-0.322V-111.192z
			 M2458.537-102.87h1.938c3.098,0,4.764-1.064,4.764-2.678c0-1.645-1.512-2.516-4.184-2.516c-1.277,0-2.014,0.064-2.518,0.129
			V-102.87z M2458.537-93.225c0.582,0.064,1.279,0.064,2.285,0.064c2.672,0,5.035-0.838,5.035-3.129
			c0-2.193-2.363-3.064-5.305-3.064h-2.016V-93.225z"/>
		<path style="fill:#BABABA;" d="M2476.078-111.482h5.926v17.612h10.379v4.129h-16.305V-111.482z"/>
		<path style="fill:#BABABA;" d="M2511.392-98.935h-9.604v5.161h10.729v4.032h-16.654v-21.741h16.111v4.032h-10.186v4.516h9.604
			V-98.935z"/>
		<path style="fill:#BABABA;" d="M2543.531-90.354c-1.084,0.452-3.523,0.936-6.699,0.936c-9.023,0-13.67-4.677-13.67-10.871
			c0-7.419,6.352-11.548,14.25-11.548c3.061,0,5.385,0.516,6.43,0.968l-1.201,3.903c-1.199-0.419-2.865-0.807-4.957-0.807
			c-4.686,0-8.326,2.355-8.326,7.193c0,4.354,3.098,7.097,8.365,7.097c1.781,0,3.756-0.323,4.918-0.71L2543.531-90.354z"/>
		<path style="fill:#BABABA;" d="M2570.133-100.837c0,7.128-5.189,11.451-12.818,11.451c-7.744,0-12.275-4.871-12.275-11.064
			c0-6.516,4.996-11.387,12.701-11.387C2565.758-111.837,2570.133-106.837,2570.133-100.837z M2551.273-100.547
			c0,4.258,2.4,7.258,6.352,7.258c3.988,0,6.273-3.161,6.273-7.387c0-3.903-2.246-7.258-6.313-7.258
			C2553.597-107.934,2551.273-104.773,2551.273-100.547z"/>
		<path style="fill:#BABABA;" d="M2579.927-111.482v21.741h-5.926v-21.741H2579.927z"/>
		<path style="fill:#BABABA;" d="M2585.037-89.741v-21.741h6.895l5.422,7.967c1.549,2.291,3.098,5,4.26,7.452h0.115
			c-0.387-2.871-0.502-5.806-0.502-9.064v-6.354h5.422v21.741h-6.197l-5.576-8.387c-1.549-2.323-3.254-5.129-4.531-7.677
			l-0.117,0.032c0.156,2.871,0.232,5.935,0.232,9.483v6.548H2585.037z"/>
	</g>
</g>
<g>
	<g>
		<g>
			<path style="fill:#798CEF;" d="M2643.458-138.598c-0.819,1.308-0.819,3.449,0,4.757l35.92,57.361
				c0.819,1.308,1.095,1.179,0.613-0.288l-25.018-76.152c-0.481-1.466-1.546-1.596-2.365-0.288L2643.458-138.598z"/>
		</g>
		<g>
			<g>
				<path style="fill:#BABABA;" d="M2684.591-198.723c-0.819-1.308-2.159-1.308-2.979,0l-23.791,37.992
					c-0.819,1.308-1.095,3.578-0.613,5.044l25.018,76.154c0.481,1.466,1.271,1.466,1.752,0l25.018-76.154
					c0.481-1.466,0.206-3.736-0.613-5.044L2684.591-198.723z"/>
			</g>
		</g>
		<g>
			<path style="fill:#798CEF;" d="M2713.594-153.207c-0.819-1.308-1.884-1.179-2.365,0.288l-25.018,76.152
				c-0.481,1.466-0.206,1.596,0.613,0.288l35.918-57.361c0.819-1.308,0.819-3.449,0-4.757L2713.594-153.207z"/>
		</g>
	</g>
</g>
</svg>
