<?xml version="1.0" encoding="utf-8"?>
<!-- Generator: Adobe Illustrator 16.0.0, SVG Export Plug-In . SVG Version: 6.00 Build 0)  -->
<!DOCTYPE svg PUBLIC "-//W3C//DTD SVG 1.1//EN" "http://www.w3.org/Graphics/SVG/1.1/DTD/svg11.dtd">
<svg version="1.1" id="svg" xmlns="http://www.w3.org/2000/svg" xmlns:xlink="http://www.w3.org/1999/xlink" x="0px" y="0px"
	 width="89.509px" height="128px" viewBox="2641.969 -201.601 89.509 128"
	 style="enable-background:new 2641.969 -201.601 89.509 128;" xml:space="preserve">
<g>
	<g>
		<g>
			<path style="fill:#798CEF;" d="M2643.458-138.598c-0.819,1.308-0.819,3.449,0,4.757l35.92,57.361
				c0.819,1.308,1.095,1.179,0.613-0.288l-25.018-76.152c-0.481-1.466-1.546-1.596-2.365-0.288L2643.458-138.598z"/>
		</g>
		<g>
			<g>
				<path style="fill:#BABABA;" d="M2684.591-198.723c-0.819-1.308-2.159-1.308-2.979,0l-23.791,37.992
					c-0.819,1.308-1.095,3.578-0.613,5.044l25.018,76.154c0.481,1.466,1.271,1.466,1.752,0l25.018-76.154
					c0.481-1.466,0.206-3.736-0.613-5.044L2684.591-198.723z"/>
			</g>
		</g>
		<g>
			<path style="fill:#798CEF;" d="M2713.594-153.207c-0.819-1.308-1.884-1.179-2.365,0.288l-25.018,76.152
				c-0.481,1.466-0.206,1.596,0.613,0.288l35.918-57.361c0.819-1.308,0.819-3.449,0-4.757L2713.594-153.207z"/>
		</g>
	</g>
</g>
</svg>
