<svg viewBox="0 0 210.2 93.7" xmlns="http://www.w3.org/2000/svg"><path class="pathColor" fill="#1d212f" d="M0 0v93.8h210.2V0zm93.4 29.8c4.7 0 9.2.5 13.6 1.5v6.2A48.1 48.1 0 0 0 93.5 35c-4.4 0-7.7 1.3-10 3.8-2.2 2.5-3.3 6.2-3.3 11s1.2 8.4 3.6 11c2.4 2.5 5.8 3.8 10.2 3.8l5-.4v-8.6h-6.4v-5.2H107v17.7c-5 1.2-9.5 1.8-13.5 1.8-6 0-10.5-1-13.5-2.8-2.2-1.4-4-3.2-5.3-5.5-2-3.2-3-7.1-3-11.8 0-5.9 1.7-10.7 4.9-14.3 1.8-2 4-3.5 6.6-4.4 2.6-.9 6-1.3 10.2-1.3zm38 0c5.8 0 10.3 1.8 13.6 5.3 3.3 3.6 5 8.5 5 14.7a21 21 0 0 1-5 14.8 18 18 0 0 1-13.8 5.3c-5.1 0-9.3-1.4-12.4-4.3-4-3.7-5.9-9-5.9-15.8 0-6.2 1.6-11.1 5-14.7 3.2-3.5 7.8-5.3 13.5-5.3zm-111 1h8.4l10 28.5 9.7-28.6h5.9L41.6 69h-8zm38 0h8V69h-8zm98 0h16.7c7.8 0 11.7 3.1 11.7 9.4 0 3-1 5.6-2.8 7.7-1 1.2-2.6 2.2-4.7 3.2L189.8 69H181l-10.7-15.7h-6.3V69h-7.5zm-25 4.2a8.4 8.4 0 0 0-7.4 4 19.1 19.1 0 0 0-2.7 10.8c0 4.7 1 8.3 2.7 11 1.7 2.6 4.2 3.9 7.3 3.9 3 0 5.2-1 7-3.1 2-2.6 3.2-6.6 3.2-11.8a19 19 0 0 0-2.7-10.9 8.5 8.5 0 0 0-7.4-3.9zm32.5 1V48h4.2c3.3 0 5.7-.8 7-2.3 1.1-1.2 1.7-2.7 1.7-4.5 0-2-.8-3.4-2.2-4.2A11 11 0 0 0 169 36z"/></svg>
