<?xml version="1.0" standalone="no"?>
<!DOCTYPE svg PUBLIC "-//W3C//DTD SVG 20010904//EN"
 "http://www.w3.org/TR/2001/REC-SVG-20010904/DTD/svg10.dtd">
<svg version="1.0" xmlns="http://www.w3.org/2000/svg"
 width="1024.000000pt" height="1024.000000pt" viewBox="0 0 1024.000000 1024.000000"
 preserveAspectRatio="xMidYMid meet">
<metadata>
Created by potrace 1.11, written by Peter Selinger 2001-2013
</metadata>
<g transform="translate(0.000000,1024.000000) scale(0.100000,-0.100000)"
fill="#000000" stroke="none">
<path d="M4771 10069 c-33 -20 -59 -54 -113 -144 -23 -38 -44 -72 -48 -75 -3
-3 -10 -12 -13 -20 -10 -21 -141 -231 -262 -420 -12 -19 -51 -80 -85 -135 -34
-55 -93 -149 -132 -210 -38 -60 -73 -120 -78 -132 -5 -13 -14 -23 -19 -23 -5
0 -12 -11 -15 -25 -4 -14 -11 -25 -16 -25 -6 0 -10 -4 -10 -9 0 -10 -79 -142
-91 -151 -3 -3 -12 -16 -19 -30 -7 -14 -27 -47 -45 -75 -99 -154 -305 -488
-305 -495 0 -5 -4 -10 -8 -12 -4 -1 -26 -32 -47 -68 -21 -36 -43 -66 -47 -68
-4 -2 -8 -7 -8 -12 0 -9 -61 -112 -71 -120 -3 -3 -28 -42 -54 -87 -26 -46 -54
-88 -61 -94 -8 -6 -14 -15 -14 -20 0 -5 -21 -41 -47 -81 -26 -40 -56 -88 -66
-107 -10 -18 -22 -38 -28 -45 -25 -30 -57 -85 -51 -90 3 -3 0 -6 -6 -6 -7 0
-12 -7 -12 -15 0 -8 -4 -15 -9 -15 -5 0 -13 -9 -16 -20 -3 -11 -12 -26 -18
-33 -7 -7 -21 -28 -31 -47 -11 -19 -40 -67 -66 -105 -95 -144 -121 -228 -116
-370 3 -83 11 -112 105 -395 55 -168 124 -375 152 -460 27 -85 54 -164 59
-175 4 -11 16 -46 25 -79 10 -32 51 -158 92 -280 40 -121 75 -228 78 -236 2
-8 8 -27 14 -43 6 -15 13 -38 16 -50 4 -18 51 -162 70 -215 2 -7 5 -16 6 -20
1 -4 13 -38 26 -77 14 -38 26 -74 27 -80 1 -5 50 -156 109 -335 58 -179 107
-328 107 -332 1 -4 10 -31 21 -60 11 -29 21 -57 23 -63 5 -22 18 -61 26 -80 8
-21 124 -376 125 -385 1 -3 14 -43 30 -90 16 -47 29 -87 30 -90 1 -8 185 -569
210 -640 27 -77 85 -254 91 -278 5 -20 72 -221 81 -242 3 -8 7 -19 8 -25 0 -5
4 -17 7 -25 9 -22 128 -382 133 -403 2 -9 6 -21 9 -25 3 -5 7 -19 10 -33 3
-13 16 -55 29 -94 14 -38 71 -212 127 -385 56 -173 106 -324 110 -335 5 -11
18 -51 30 -90 13 -38 25 -77 28 -85 3 -8 6 -17 6 -20 4 -14 30 -56 40 -62 6
-4 21 -8 32 -8 34 0 61 68 225 570 83 256 169 519 191 585 22 66 41 125 43
130 1 6 5 17 8 25 3 8 34 101 68 205 33 105 82 251 107 325 25 74 46 142 47
150 1 8 7 28 14 44 7 16 23 66 37 110 14 45 28 88 31 96 4 8 7 18 8 23 2 4 4
9 5 12 1 3 4 10 5 15 1 6 4 12 5 15 1 3 3 8 4 13 1 4 29 88 61 187 33 99 60
182 60 185 0 3 16 50 35 105 19 55 34 103 35 107 0 3 3 10 8 14 4 4 7 16 7 26
0 11 9 40 19 66 10 26 35 99 56 162 20 63 39 122 42 130 3 8 7 20 8 26 3 12
173 530 182 554 3 8 7 20 8 25 6 21 127 391 135 410 10 24 89 263 95 285 5 23
115 362 125 385 12 30 20 54 130 395 56 173 107 331 115 350 39 98 157 485
161 527 3 26 7 54 9 61 2 6 1 12 -3 12 -4 0 -7 15 -7 33 -2 107 -22 153 -179
403 -76 120 -143 228 -149 239 -7 11 -22 34 -34 52 -13 17 -23 34 -23 36 0 3
-82 135 -182 293 -99 159 -197 315 -217 347 -20 32 -47 75 -61 97 -14 21 -47
75 -75 120 -27 45 -57 92 -65 105 -82 129 -226 361 -229 369 -2 5 -8 15 -13
21 -5 5 -26 37 -47 70 -21 33 -51 80 -67 105 -15 25 -29 47 -29 50 -1 3 -19
32 -40 65 -47 71 -62 95 -71 115 -4 8 -10 17 -14 20 -3 3 -24 34 -45 70 -46
77 -81 130 -95 147 -5 7 -10 15 -10 17 0 3 -36 62 -80 132 -44 69 -80 130 -80
135 0 5 -4 9 -9 9 -5 0 -11 8 -15 18 -3 9 -14 29 -23 44 -10 15 -41 64 -70
110 -88 141 -145 174 -222 127z"/>
<path d="M2433 6416 c-23 -19 -140 -196 -234 -354 -9 -15 -87 -139 -174 -277
-190 -301 -193 -306 -202 -325 -4 -8 -11 -19 -15 -25 -26 -31 -171 -270 -173
-285 0 -3 -4 -10 -8 -17 -14 -21 -19 -148 -9 -204 6 -31 25 -78 42 -105 16
-27 36 -61 42 -76 7 -16 16 -28 20 -28 4 0 8 -7 8 -15 0 -8 5 -15 10 -15 6 0
10 -4 10 -9 0 -5 31 -58 70 -118 38 -59 80 -125 92 -147 29 -49 24 -42 143
-229 55 -87 107 -170 115 -185 8 -15 18 -29 21 -32 3 -3 12 -16 19 -30 7 -14
42 -69 77 -122 34 -54 63 -100 63 -102 0 -3 13 -24 28 -48 16 -24 43 -65 60
-93 17 -27 35 -54 39 -60 5 -5 17 -27 28 -47 11 -21 23 -38 27 -38 5 0 8 -4 8
-9 0 -5 22 -45 50 -88 27 -43 59 -94 70 -113 11 -19 38 -62 60 -95 22 -33 43
-68 46 -77 4 -10 10 -18 15 -18 5 0 9 -5 9 -11 0 -6 14 -30 30 -54 17 -24 30
-48 30 -53 0 -6 4 -12 8 -14 5 -1 27 -34 50 -73 23 -38 45 -74 49 -80 4 -5 57
-89 117 -185 112 -181 159 -254 208 -328 15 -24 28 -46 28 -50 0 -4 16 -30 36
-57 20 -28 40 -59 45 -70 14 -28 29 -53 67 -107 17 -26 32 -49 32 -53 0 -3 18
-33 40 -65 22 -32 40 -64 40 -69 0 -6 4 -11 8 -11 5 0 15 -12 23 -27 8 -15 71
-119 142 -231 70 -111 127 -205 127 -208 0 -3 5 -10 11 -17 6 -7 78 -120 160
-252 82 -132 153 -247 159 -255 48 -72 90 -142 90 -149 0 -5 7 -14 16 -22 8
-7 25 -31 36 -53 11 -23 23 -43 27 -46 10 -8 31 -44 37 -62 4 -10 10 -18 15
-18 5 0 9 -4 9 -9 0 -17 130 -216 151 -230 20 -14 21 -13 16 18 -5 31 -119
393 -137 436 -5 11 -46 135 -91 275 -45 140 -85 264 -90 275 -4 11 -13 38 -20
60 -6 22 -15 49 -20 60 -11 30 -188 567 -194 589 -2 11 -21 69 -42 130 -20 61
-38 113 -38 116 -1 3 -4 12 -7 20 -3 8 -47 143 -98 300 -50 157 -95 294 -100
305 -8 20 -204 615 -205 625 -1 9 -86 265 -95 285 -4 11 -36 108 -70 215 -34
107 -66 204 -70 215 -5 11 -23 65 -40 120 -17 55 -34 107 -37 115 -3 8 -7 20
-9 25 -1 6 -9 29 -18 53 -8 23 -15 43 -15 45 0 1 -2 9 -5 17 -3 8 -19 58 -37
110 -17 52 -32 99 -34 105 -1 5 -5 17 -8 25 -3 8 -11 33 -17 55 -6 22 -15 49
-20 60 -17 40 -154 470 -152 478 1 4 -3 7 -10 7 -6 0 -9 2 -6 5 6 6 -44 171
-55 182 -4 3 -7 16 -7 28 0 12 -3 25 -7 29 -5 4 -8 11 -9 14 0 4 -3 14 -6 22
-3 8 -13 42 -24 75 -10 33 -21 67 -25 75 -13 28 -203 615 -201 622 1 4 -13 23
-32 42 -40 43 -72 46 -113 12z"/>
<path d="M7139 6434 c-18 -5 -59 -73 -59 -98 0 -9 -4 -16 -8 -16 -4 0 -8 -8
-9 -17 -1 -14 -78 -253 -118 -371 -2 -7 -5 -16 -6 -20 -1 -4 -16 -50 -34 -102
-32 -92 -194 -585 -199 -605 -2 -5 -6 -17 -9 -25 -10 -28 -37 -115 -38 -125 0
-5 -4 -14 -9 -20 -4 -5 -11 -26 -15 -45 -4 -19 -11 -39 -15 -45 -5 -5 -8 -12
-8 -15 1 -7 -12 -52 -22 -75 -9 -21 -100 -302 -104 -320 -4 -21 -28 -91 -37
-110 -6 -12 -11 -27 -13 -35 -2 -8 -6 -22 -9 -30 -3 -8 -38 -114 -77 -235 -39
-121 -74 -227 -76 -235 -3 -8 -5 -16 -5 -17 1 -2 -8 -27 -18 -55 -25 -70 -212
-639 -216 -658 -2 -8 -4 -17 -5 -20 -1 -3 -2 -8 -1 -12 0 -5 -4 -8 -11 -8 -6
0 -9 -3 -6 -6 3 -3 -14 -65 -39 -137 -24 -73 -46 -139 -48 -147 -4 -17 -53
-167 -62 -190 -8 -20 -8 -20 -18 -55 -4 -16 -10 -34 -14 -40 -3 -5 -6 -14 -7
-20 -1 -5 -30 -95 -65 -200 -35 -104 -63 -192 -64 -195 -1 -3 -27 -84 -59
-180 -32 -96 -59 -179 -60 -185 -1 -5 -4 -14 -8 -20 -4 -8 -58 -175 -63 -195
-1 -8 -96 -293 -102 -310 -3 -8 -7 -19 -8 -25 -2 -5 -37 -113 -79 -240 -133
-403 -227 -690 -231 -705 -3 -8 -10 -34 -16 -58 -6 -23 -9 -45 -6 -48 8 -8 41
25 57 55 7 14 17 30 22 35 12 15 195 306 208 331 5 11 48 80 95 153 47 74 85
137 85 142 0 5 3 10 8 12 10 4 192 296 192 308 0 4 4 10 8 12 5 2 37 50 72
108 36 58 68 107 72 108 4 2 8 8 8 13 0 9 66 118 111 181 10 15 19 29 19 32 0
2 18 32 40 65 22 33 40 65 40 71 0 5 5 10 10 10 6 0 10 7 10 15 0 8 5 15 10
15 6 0 10 4 10 9 0 10 80 142 91 151 3 3 21 30 38 60 44 76 54 92 67 106 6 7
17 26 24 43 7 17 16 31 20 31 4 0 15 18 25 40 10 22 22 40 27 40 4 0 8 6 8 13
0 7 8 22 18 33 9 10 24 33 32 49 8 17 17 32 20 35 10 9 86 134 93 153 3 9 10
17 16 17 5 0 11 8 14 18 4 9 16 33 29 54 63 100 125 198 153 243 18 28 87 138
153 245 67 107 128 204 137 215 8 10 15 25 15 32 0 7 5 13 10 13 6 0 10 6 10
14 0 8 4 16 8 18 5 2 23 29 41 60 18 32 36 60 41 63 4 3 20 28 35 57 15 29 31
55 35 58 4 3 20 28 35 55 16 28 33 52 37 53 4 2 8 8 8 13 0 4 32 57 70 116 39
60 73 116 77 126 3 9 9 17 13 17 4 0 11 11 14 25 4 14 11 25 16 25 6 0 10 7
10 15 0 8 5 15 10 15 6 0 10 6 10 13 0 6 14 32 30 57 17 25 35 52 40 60 5 8
21 32 35 53 14 21 25 40 25 42 0 4 141 229 157 251 15 20 33 49 40 64 3 8 24
41 45 73 56 83 76 148 75 246 0 45 -4 84 -9 87 -4 3 -6 9 -4 12 6 10 -54 117
-159 284 -49 78 -92 146 -94 152 -2 6 -8 15 -13 21 -14 16 -78 116 -78 122 0
2 -13 24 -30 48 -16 24 -30 46 -30 50 0 3 -5 11 -11 18 -20 23 -269 427 -269
437 0 6 -4 10 -8 10 -5 0 -21 22 -35 49 -54 98 -112 141 -168 125z"/>
</g>
</svg>
