<svg xmlns="http://www.w3.org/2000/svg" viewBox="0 0 423.7 50">
  <path class="pathColor1" fill="#dee2fd" d="M423.7 37a526.5 526.5 0 0 1-134 .5c-12.4-1.9-24.6-5.5-37.2-5.7-2.8 0-5.5.1-8.3.3-23.9 1.2-48 3.3-70.5 11.3l-4.7 1.7a89.2 89.2 0 0 1-37.3 4.5c-9.4-.8-18.6-3.2-28-4.1-22.1-2.2-44.4 3.9-66.6 3.2-12.7-.4-25.3-3-37.1-7.7V9.8a179 179 0 0 1 88.5.9c22 5.6 44 12.4 66.5 15.9a94.6 94.6 0 0 0 26 1.1c13-1.6 25-7.4 37.3-12 6.1-2.4 12.4-4.5 18.8-5.6a48.9 48.9 0 0 1 19.6.2c6.7 1.6 13 5 19.2 8A130.4 130.4 0 0 0 332.3 31c31.6-.2 63-7.6 91.4-21.4z"/>
  <path class="pathColor2" fill="#bfceff" fill-opacity=".6" d="M423.7 37a526.5 526.5 0 0 1-134 .5c-12.4-1.9-24.6-5.5-37.2-5.7-2.8 0-5.5.1-8.3.3-23.9 1.2-48 3.3-70.5 11.3l-4.7 1.7a89.2 89.2 0 0 1-37.3 4.5c-9.4-.8-18.6-3.2-28-4.1-22.1-2.2-44.4 3.9-66.6 3.2-12.7-.4-25.3-3-37.1-7.7V27.5c27-5.8 53.8-12 80.5-18.7 12.6-3.1 25.2-6.4 38-8A96.9 96.9 0 0 1 157.1 3c15.7 4.6 29.4 14.3 44.7 19.8a52.6 52.6 0 0 0 30.3 2.6c8.7-2.2 16.4-7.4 25-10.2 8.6-2.7 17.9-2.8 26.8-1.3a133 133 0 0 1 26 7.8c11 4.2 21.8 9 33.3 11 10.3 2 21 1.7 31.4-.1 18-3.2 35.1-11.2 49-23z"/>
</svg>