<svg xmlns="http://www.w3.org/2000/svg" viewBox="0 0 240 240">
  <circle cx="120" cy="124.1" r="101.3" fill="#4099f7"/>
  <path d="M112.6 188.1c-3.5 0-6.4-.4-8.7-1.2-2.3-.8-4.2-1.7-5.5-2.6-1.4-1-2.3-1.9-2.8-2.8-.5-.9-.8-1.5-.8-1.8 0-1 .2-2 .6-3.1.4-1.1 1-2.1 1.6-3.1.6-1 1.3-1.8 2.1-2.4s1.4-1 2-1c.8 0 1.4.5 1.9 1.5l.8.8c.4.4 1 .9 1.8 1.3s1.8.9 2.9 1.3c1.2.4 2.5.6 4.1.6 3.4 0 6.2-1 8.3-3.1 2.2-2.1 3.2-4.9 3.2-8.5 0-2.5-.6-4.7-1.7-6.7-1.2-2-2.7-3.8-4.6-5.5s-4-3.3-6.5-4.9c-2.4-1.6-4.9-3.3-7.5-5s-5-3.6-7.5-5.6c-2.4-2-4.6-4.3-6.5-6.9-1.9-2.6-3.4-5.6-4.6-8.8-1.2-3.3-1.7-7.1-1.7-11.3 0-3.6.6-7.3 1.9-11 1.2-3.7 3-7.2 5.1-10.6 2.2-3.3 4.8-6.5 7.7-9.4 3-2.9 6.2-5.4 9.6-7.6 3.5-2.1 7.1-3.8 10.8-5.1 3.8-1.2 7.5-1.8 11.3-1.8 3.2 0 6.2.5 8.7 1.5 2.6 1 4.8 2.5 6.6 4.4 1.8 1.9 3.2 4.1 4.1 6.8 1 2.6 1.5 5.6 1.5 8.8 0 3.1-.5 6.1-1.6 9.1s-2.5 5.8-4.3 8.5c-1.8 2.7-3.8 5.1-6 7.4-2.2 2.3-4.5 4.2-6.9 5.9-2.3 1.7-4.6 2.9-6.8 3.9-2.2.9-4.2 1.4-5.8 1.4-1.5 0-2.8-.3-3.9-1s-2.1-1.5-2.9-2.5-1.4-2.1-1.8-3.2c-.4-1.1-.6-2.1-.6-3 0-.7.1-1.2.3-1.4.2-.2.5-.3.8-.3.4 0 .8.1 1.3.2s1.2.2 1.9.2c2.3 0 4.8-.8 7.5-2.4 2.8-1.6 5.3-3.6 7.8-6 2.4-2.4 4.5-5.1 6.1-8.1 1.6-2.9 2.5-5.8 2.5-8.6s-.7-5.1-2.1-6.7c-1.4-1.6-3.7-2.4-7-2.4-2.1 0-4.3.4-6.7 1.2-2.4.8-4.8 1.9-7.2 3.3-2.4 1.4-4.8 3.1-7 5.1-2.3 2-4.3 4.2-6 6.6-1.7 2.4-3.1 5-4.2 7.8s-1.6 5.7-1.6 8.8c0 3.2.6 6.1 1.7 8.6 1.2 2.5 2.7 4.8 4.6 6.9 1.9 2.1 4.1 4 6.5 5.7 2.4 1.7 4.9 3.5 7.5 5.2 2.5 1.7 5 3.5 7.5 5.3 2.4 1.8 4.6 3.8 6.5 6 1.9 2.2 3.5 4.6 4.6 7.3s1.7 5.8 1.7 9.3c0 3.4-.6 6.6-1.9 9.6-1.3 3-3 5.6-5.2 7.9-2.2 2.2-4.8 4-7.9 5.3s-6.1 1.9-9.6 1.9z" fill="#fff"/>
</svg>