<svg width="25" height="22" xmlns="http://www.w3.org/2000/svg" xmlns:xlink="http://www.w3.org/1999/xlink">
  <defs>
    <path d="M26.3258782 7.30555879L19.0722014 19.1138644l-5.1731623-8.434504 4.1047954-6.71948999c.0937143-.14994434.229602-.25303333.4076668-.30926335.1780611-.05623003.3514368-.0656011.5201268-.02811681l7.3942501 3.68306854zm.084343 15.80063771c0 .3373819-.1312022.5622997-.3936102.6747603-.262408.1124607-.5810425.0749743-.9559105-.11246l-5.6511196-2.8115015 7.0006403-11.41469571V23.1061965zm-15.6038305.1686895c0 .3373819-.1124601.5763571-.3373802.7169328-.2249237.1405758-.48732809.1265184-.78722036-.0421725l-6.60702989-3.2894565c-.18743438-.0937172-.34675116-.2436622-.47795522-.4498384-.13120407-.206178-.19680509-.4123559-.19680509-.6185339V4.32536737c0-.26240799.08903-.44515467.26709262-.54824365.17806277-.10308898.38892303-.09840345.6325878.0140602l7.14121334 3.57060483.365497.53418344V23.274886zm7.5348241-2.9520741l-6.32588-3.1769984V9.94836991l6.32588 10.37444199z"/>
  </defs>
  <use fill="#414DFF" transform="translate(-2.2 -2.8)" fill-rule="evenodd"/>
</svg>