<svg xmlns="http://www.w3.org/2000/svg" width="24" height="21">
  <g fill="none" fill-rule="evenodd">
    <path d="M-4-6h32v32H-4z"/>
    <path class="pathColor" fill="#fff" d="M12.78 15.84l.06.04 5.22 3.88c.25.18.52.31.81.39.55.15.94-.03 1.2-.54l.06-.15c.12-.28.17-.58.24-.88l1.2-5.67 1.2-5.67 1.15-5.36c.07-.33.12-.66.05-1-.13-.65-.69-1-1.33-.84-.34.1-.66.24-.98.36l-10.38 4-8.95 3.46c-.55.2-1.11.4-1.64.66-.24.11-.45.26-.6.5-.17.3-.1.57.2.77.18.12.4.16.6.23a3442.46 3442.46 0 0 1 5.44 1.66l.06-.04 11.63-7.32 1.06-.67c.17-.1.35-.18.56-.14.18.03.23.15.12.3-.06.08-.14.14-.21.21l-9.27 8.47-.86.78-.44 5.65h.1a.55.55 0 0 0 .1-.01c.4-.09.72-.3 1-.57.63-.59 1.23-1.18 1.85-1.78z"/>
  </g>
</svg>