<svg xmlns="http://www.w3.org/2000/svg" viewBox="0 0 338.4 507.3">
  <g fill="#fff">
    <path d="M169.2 455.4c-4 0-8-1.1-11.3-3.2L27.4 370.1c-4.4-2.8-6.7-8.1-5.5-13.2L67 159c.4-1.5.9-2.8 1.7-4.1l90.2-135c2.3-3.5 6.1-5.5 10.2-5.5s8 2.1 10.2 5.5l90.2 134.9c.8 1.2 1.5 2.7 1.7 4.1l45.1 197.9c1.2 5.1-1.1 10.4-5.5 13.2l-130.5 82.1c-3.1 2.1-7.1 3.3-11.1 3.3zM47.9 353.8L169.2 430l121.3-76.2-42.7-187.2L169.2 49 90.6 166.7 47.9 353.8z"/>
    <path d="M168.7 457.1c-5.5 0-10.1-3.5-11.8-8.6L80.7 208.6 45.9 362.4c-1.5 6.7-8.1 10.8-14.8 9.3-6.7-1.5-10.8-8.1-9.3-14.8l45.1-198.1c1.5-6.7 8.1-10.8 14.8-9.3 4.3.9 7.7 4.1 9 8.4L168.8 404l78.7-246.2c1.7-5.3 6.8-8.9 12.4-8.5 5.6.3 10.2 4.1 11.6 9.6L316.6 357c1.5 6.7-2.7 13.3-9.3 14.8-6.7 1.5-13.3-2.7-14.8-9.3l-35.1-153.9-76.8 240.1c-1.8 5-6.5 8.4-11.9 8.4z"/>
  </g>
</svg>