<svg xmlns="http://www.w3.org/2000/svg" xmlns:xlink="http://www.w3.org/1999/xlink" width="23" height="20">
  <defs>
    <path d="M14.6190492 19.8836186c-.4305411.4305433-.8655633.8565954-1.305077 1.2781693-.4395136.4215735-.8745323.8476256-1.3050769 1.2781688-.1614529.1435146-.3273904.2556333-.4978123.3363605-.1704254.0807268-.36327.1210895-.5785405.1210895-.1435149-.0179394-.2601192-.0583022-.349813-.1210895-.0896972-.0627877-.1614529-.1659371-.2152706-.3094516-.3229093-1.0225404-.65029618-2.0495502-.98217451-3.0810593-.33187488-1.0315112-.66823428-2.0585206-1.00908164-3.0810627-.03587613-.1076353-.07624022-.18836-.12108883-.2421777-.04484861-.0538176-.12108884-.0986662-.22872412-.1345424-.78933-.233212-1.5696772-.4709052-2.34106742-.7130863-.77139021-.2421811-1.5517381-.4888399-2.34106742-.7399935-.10763597-.0358761-.21078536-.0717557-.30945161-.1076353-.09866601-.0358761-.19284592-.0807247-.28254244-.1345424-.21527164-.1255768-.33187537-.2825417-.34981468-.4709052-.0179393-.1883635.06278637-.3542975.24217939-.4978124.14351445-.1255768.29599624-.2332086.45744996-.3229058.16145361-.0896972.32290516-.161453.48435877-.2152706.98666182-.394665 1.97330848-.7803541 2.95996858-1.1570811.98666251-.3767235 1.97331124-.7534435 2.95997374-1.130167 1.18399153-.46642422 2.37245383-.92835354 3.56541793-1.38580523 1.192964-.4574517 2.3859074-.91489995 3.5788714-1.37235165 1.1929641-.45745169 2.3859109-.91938102 3.5788749-1.38580519 1.1929641-.46642073 2.3814229-.92386554 3.5654179-1.3723482.4664208-.17939444.8521098-.16145293 1.1570776.05381765.3049713.21527057.4395136.57405257.4036341 1.07635287-.0358796.32290587-.0896973.64132377-.161453.95526405-.0717557.31393683-.1435148.63235473-.2152705.95526404-.2511502 1.23780925-.5112659 2.48008926-.7803576 3.72687096-.2690882 1.2467818-.5336884 2.4935428-.7938076 3.7403246-.2601192 1.2467817-.5247229 2.4935462-.7938111 3.7403279-.2690882 1.2467807-.5381764 2.489059-.8072646 3.726871v.0538177c-.1255768.5740577-.37672.9283536-.753447 1.0628984-.3767269.1345446-.7982921.0313954-1.2647163-.3094514-.8252061-.6099363-1.6459174-1.2153788-2.4621545-1.8163457-.8162406-.6009665-1.6369484-1.206409-2.462158-1.816347-.0358796-.0358762-.0717557-.0672712-.1076353-.0941783-.0358796-.0269106-.0807247-.0583022-.1345458-.0941818zm-3.6595997 1.5338018c.0179415 0 .031395-.0044849.0403641-.0134546.008969-.0089694.013457-.0134542.013457-.0134542 0-.0179395.0044845-.0403631.0134535-.0672719.0089691-.0269092.0134536-.0493328.0134536-.0672722.0538176-.5561183.1076352-1.1167118.1614529-1.6818021.0538176-.565087.0986662-1.1256825.1345458-1.6818004.0179381-.1255768.0538142-.2421777.1076353-.349813.0538176-.1076387.1255733-.2063015.2152705-.2959987.7355089-.6637532 1.4665264-1.323015 2.1930663-1.9777991.7265433-.6547842 1.4530728-1.309558 2.1796161-1.9643422.7265399-.6547841 1.4530728-1.3095614 2.1796127-1.9643455.7265433-.6547842 1.4575573-1.3050735 2.1930696-1.95088864.1255768-.12557678.2601192-.25114669.4036341-.37672347.1435114-.12557679.2780537-.2511467.4036305-.37672348.0358796-.03587958.0583022-.08072474.0672712-.13454238.0089691-.05382109.0224261-.10763528.0403641-.16145637-.0538176 0-.1031507-.01345355-.1479994-.04036064-.0448486-.02691055-.0941782-.04036409-.1479959-.04036409-.0896972.01793806-.1793944.0448486-.2690916.08072473-.0896938.03587958-.179391.08072819-.2690848.13454583-.1973325.10763528-.390177.22423959-.5785405.34981638-.1883634.12557334-.3722389.24217766-.5516333.34981293-.8431442.53817985-1.681797 1.0673803-2.5159721 1.5876221-.8341786.5202383-1.6683434 1.0449543-2.502522 1.5741651-.8341751.5292074-1.6683434 1.0539268-2.5025185 1.5741651-.8341786.5202384-1.6638589 1.0494423-2.4890684 1.5876221-.10763528.0538177-.17490647.1166043-.20181356.18836-.02691055.0717557-.013457.161453.04036409.2690882.10763528.3229059.21526711.6547807.32290583.9956247.10763528.3408473.21526712.6727222.32290584.995628.197329.5919975.3901736 1.1750156.578537 1.749075.1883635.574056.372239 1.1481051.55163 1.7221628z"/>
  </defs>
  <use fill="#414DFF" fill-rule="evenodd" transform="translate(-2.4 -4.8)"/>
</svg>