<svg
  xmlns="http://www.w3.org/2000/svg" viewBox="0 0 19.94 19.94">
  <path fill="#142533" d="M16.7 0H7.59v12.29h12.3V3.18A3.18 3.18 0 0 0 16.72 0zm-12 0H3.18A3.18 3.18 0 0 0 0 3.17v1.58h4.75zM0 7.59h4.75v4.75H0zm15.18 12.3h1.57a3.18 3.18 0 0 0 3.18-3.17v-1.54h-4.75zm-7.59-4.7h4.75v4.75H7.59zM0 15.18v1.57a3.18 3.18 0 0 0 3.17 3.18h1.58v-4.75z"/>
  <path fill="#142533" d="M16.7 0H7.59v12.29h12.3V3.18A3.18 3.18 0 0 0 16.72 0zm-12 0H3.18A3.18 3.18 0 0 0 0 3.17v1.58h4.75zM0 7.59h4.75v4.75H0zm15.18 12.3h1.57a3.18 3.18 0 0 0 3.18-3.17v-1.54h-4.75zm-7.59-4.7h4.75v4.75H7.59zM0 15.18v1.57a3.18 3.18 0 0 0 3.17 3.18h1.58v-4.75z"/>
  <path fill="#142533" d="M16.7 0H7.59v12.29h12.3V3.18A3.18 3.18 0 0 0 16.72 0zm-12 0H3.18A3.18 3.18 0 0 0 0 3.17v1.58h4.75zM0 7.59h4.75v4.75H0zm15.18 12.3h1.57a3.18 3.18 0 0 0 3.18-3.17v-1.54h-4.75zm-7.59-4.7h4.75v4.75H7.59zM0 15.18v1.57a3.18 3.18 0 0 0 3.17 3.18h1.58v-4.75z"/>
  <path fill="#fff" d="M4.75 0h2.84v19.93H4.75zM0 4.75h4.75v2.84H0zm0 7.59h4.75v2.84H0zm7.59-.05h12.34v2.89H7.59zm4.75 2.89h2.84v4.75h-2.84z"/>
</svg>