<svg width="100" height="100"
  xmlns="http://www.w3.org/2000/svg">
  <defs>
    <linearGradient x1="93.6909263%" y1="0%" x2="-10.2188693%" y2="104.123785%" id="a">
      <stop stop-color="#7D4997" offset="0%"/>
      <stop stop-color="#DC2430" offset="100%"/>
    </linearGradient>
  </defs>
  <path d="M13 66.5708848L45 87 23.4345332 18 13 66.5708848zM30 19.024148L50.4961913 84 71 19 52.5376407 40.539094c-1.0889686 1.2704441-3.0369289 1.2697116-4.124965-.0015512L30 19.024148zM56 87l32-20.4291152L77.5654668 18 56 87zm36.936344-19.9746034c.2475359 1.1474976-.2409581 2.3294002-1.2200514 2.9518929L51.4669721 95.5671963c-.4783026.3040975-.981663.436966-1.4669721.4327045-.4853091.0042615-.9886695-.128607-1.4669721-.4327045L8.28370744 69.9772895c-.97909333-.6224927-1.46758731-1.8043953-1.2200514-2.9518929L20.1769314 6.23643238c.3213268-1.20875016 1.0691208-1.88050582 1.9331999-2.12912215.1275688-.03688104.2556102-.06384481.3834338-.08135876.7924728-.10994677 1.6356841.12606141 2.2764036.77353722.0663466.06631778.1295645.13630555.1893157.20978587L49.9811775 34.3948494 75.042028 5.00766187c.0597593-.07337681.1229778-.14326475.1893183-.20948676 1.4656978-1.47912888 3.9884161-.80735472 4.5427986 1.23142143.0125739.04543925 4.3999736 20.37737256 13.1621991 60.99580006z" stroke="url(#a)" fill="url(#a)" fill-rule="evenodd"/>
</svg>