<svg xmlns="http://www.w3.org/2000/svg" width="24" height="20">
  <g fill="none" fill-rule="evenodd">
    <path d="M-4-6h32v32H-4z"/>
    <path class="pathColor" fill="#fff" d="M24 2.37a9.62 9.62 0 0 1-2.83.8 5.04 5.04 0 0 0 2.17-2.8 9.7 9.7 0 0 1-3.13 1.22A4.86 4.86 0 0 0 16.6 0a4.99 4.99 0 0 0-4.79 6.2A13.87 13.87 0 0 1 1.67.92 5.14 5.14 0 0 0 1 3.46c0 1.75.87 3.3 2.2 4.2a4.83 4.83 0 0 1-2.24-.62v.06c0 2.44 1.7 4.49 3.95 4.95a4.7 4.7 0 0 1-1.3.17c-.3 0-.62-.02-.92-.08.63 2 2.44 3.46 4.6 3.5A9.72 9.72 0 0 1 0 17.74 13.71 13.71 0 0 0 7.55 20c9.06 0 14-7.7 14-14.36v-.66c.96-.71 1.8-1.6 2.45-2.61"/>
  </g>
</svg>