<svg width="13" height="24" xmlns="http://www.w3.org/2000/svg">
  <path d="M.39999978 9.1321348H3.9300522V5.86950723s.040115-.41896459.1203418-1.25691088c.0802302-.83794629.5214824-1.65805148 1.3237705-2.46033953.8201189-.82011889 1.787307-1.26136773 2.9015952-1.3237705 1.1142917-.06239935 2.4469622-.02228426 3.9980526.12034184v3.63702366H9.9739297s-.1782843.01783083-.5348564.05348907c-.3565721.03565481-.6507414.17828091-.8825148.42788513-.2139426.26742821-.3342844.55268041-.3610255.85577028-.0267446.30308644-.0401151.49919818-.0401151.58833864V9.1321348h3.984682l-.5081153 4.0381643H8.1286734v10.4297002H3.9300522V13.1702991H.39999978V9.1321348z" fill="#414DFF" fill-rule="evenodd"/>
</svg>