<svg xmlns="http://www.w3.org/2000/svg" width="29" height="24">
  <path fill="#414DFF" fill-rule="evenodd" d="M28.2177761 3.30222444c-.794075 1.16148677-1.7540653 2.15110482-2.8799988 2.96888599.0118511.16592725.0177766.41481613.0177766.74666667 0 1.5407496-.2251827 3.0785126-.6755561 4.6133366-.4503694 1.5348201-1.1348099 3.0073981-2.0533333 4.4177777-.9185194 1.4103757-2.0118425 2.6577709-3.2799971 3.7422204-1.2681545 1.0844499-2.7970292 1.9496263-4.5866677 2.5955555-1.7896385.6459292-3.7036936.9688889-5.742221.9688889-3.2118692 0-6.1510988-.8592508-8.8177787-2.5777776.4148169.0474076.8770346.071111 1.3866667.071111 2.6666779 0 5.0429535-.8177697 7.1288893-2.4533344-1.2444524-.0237022-2.3585149-.4059198-3.3422233-1.1466649-.9837085-.7407451-1.659257-1.6859216-2.026666-2.8355572.3911128.0592594.7525906.0888911 1.0844443.0888911.5096329 0 1.0133322-.065185 1.51111-.195555-1.327414-.272595-2.4266611-.9333293-3.2977765-1.9822227-.8711155-1.0488934-1.3066667-2.2666609-1.3066667-3.6533344v-.0711106c.8059297.4503734 1.6711065.6933328 2.5955555.7288901-.7822263-.521484-1.4044422-1.2029617-1.8666667-2.044445-.4622245-.84148736-.6933331-1.75406931-.6933331-2.73777774 0-1.04296787.260738-2.00888372.7822219-2.89777942 1.4340814 1.76593632 3.1792493 3.17925483 5.2355573 4.23999934 2.056304 1.0607485 4.257764 1.65037222 6.6044437 1.76889112-.0948167-.4503734-.142225-.88888772-.142225-1.31555495 0-1.58815797.559996-2.94221704 1.6799999-4.06222498C16.6533393 1.15999601 18.0073983.6 19.5955563.6c1.6592645 0 3.0577692.60443761 4.1955538 1.81333273 1.2918607-.24888889 2.5066615-.71110541 3.6444461-1.3866655-.4385223 1.36297128-1.2799938 2.41777431-2.5244461 3.16444495 1.1022273-.1185189 2.2044387-.41481215 3.306666-.88888774z"/>
</svg>